<mxfile host="Electron" agent="Mozilla/5.0 (X11; Linux x86_64) AppleWebKit/537.36 (KHTML, like Gecko) draw.io/24.7.17 Chrome/128.0.6613.36 Electron/32.0.1 Safari/537.36" version="24.7.17">
  <diagram name="Page-1" id="rpKgRvNu5TE6QSlZJuoE">
    <mxGraphModel dx="1312" dy="1790" grid="1" gridSize="10" guides="1" tooltips="1" connect="1" arrows="1" fold="1" page="1" pageScale="1" pageWidth="827" pageHeight="1169" math="0" shadow="0">
      <root>
        <mxCell id="0" />
        <mxCell id="1" parent="0" />
        <mxCell id="negicoj8L9423w4YZSS3-8" style="edgeStyle=orthogonalEdgeStyle;rounded=0;orthogonalLoop=1;jettySize=auto;html=1;endArrow=none;endFill=0;" edge="1" parent="1" source="negicoj8L9423w4YZSS3-1" target="negicoj8L9423w4YZSS3-7">
          <mxGeometry relative="1" as="geometry" />
        </mxCell>
        <mxCell id="negicoj8L9423w4YZSS3-23" value="1,1" style="edgeLabel;html=1;align=center;verticalAlign=middle;resizable=0;points=[];" vertex="1" connectable="0" parent="negicoj8L9423w4YZSS3-8">
          <mxGeometry x="-0.1491" relative="1" as="geometry">
            <mxPoint as="offset" />
          </mxGeometry>
        </mxCell>
        <mxCell id="negicoj8L9423w4YZSS3-1" value="Book" style="rounded=0;whiteSpace=wrap;html=1;" vertex="1" parent="1">
          <mxGeometry x="140" y="270" width="190" height="110" as="geometry" />
        </mxCell>
        <mxCell id="negicoj8L9423w4YZSS3-4" style="edgeStyle=orthogonalEdgeStyle;rounded=0;orthogonalLoop=1;jettySize=auto;html=1;endArrow=none;endFill=0;" edge="1" parent="1" source="negicoj8L9423w4YZSS3-2" target="negicoj8L9423w4YZSS3-3">
          <mxGeometry relative="1" as="geometry" />
        </mxCell>
        <mxCell id="negicoj8L9423w4YZSS3-20" value="0,n" style="edgeLabel;html=1;align=center;verticalAlign=middle;resizable=0;points=[];" vertex="1" connectable="0" parent="negicoj8L9423w4YZSS3-4">
          <mxGeometry x="-0.0667" relative="1" as="geometry">
            <mxPoint as="offset" />
          </mxGeometry>
        </mxCell>
        <mxCell id="negicoj8L9423w4YZSS3-2" value="BookCase" style="rounded=0;whiteSpace=wrap;html=1;" vertex="1" parent="1">
          <mxGeometry x="140" y="-10" width="190" height="110" as="geometry" />
        </mxCell>
        <mxCell id="negicoj8L9423w4YZSS3-5" style="edgeStyle=orthogonalEdgeStyle;rounded=0;orthogonalLoop=1;jettySize=auto;html=1;endArrow=none;endFill=0;" edge="1" parent="1" source="negicoj8L9423w4YZSS3-3" target="negicoj8L9423w4YZSS3-1">
          <mxGeometry relative="1" as="geometry" />
        </mxCell>
        <mxCell id="negicoj8L9423w4YZSS3-21" value="0,n" style="edgeLabel;html=1;align=center;verticalAlign=middle;resizable=0;points=[];" vertex="1" connectable="0" parent="negicoj8L9423w4YZSS3-5">
          <mxGeometry x="-0.04" y="1" relative="1" as="geometry">
            <mxPoint as="offset" />
          </mxGeometry>
        </mxCell>
        <mxCell id="negicoj8L9423w4YZSS3-3" value="Appartenir" style="rounded=0;whiteSpace=wrap;html=1;" vertex="1" parent="1">
          <mxGeometry x="175" y="160" width="120" height="60" as="geometry" />
        </mxCell>
        <mxCell id="negicoj8L9423w4YZSS3-9" style="edgeStyle=orthogonalEdgeStyle;rounded=0;orthogonalLoop=1;jettySize=auto;html=1;endArrow=none;endFill=0;" edge="1" parent="1" source="negicoj8L9423w4YZSS3-6" target="negicoj8L9423w4YZSS3-7">
          <mxGeometry relative="1" as="geometry" />
        </mxCell>
        <mxCell id="negicoj8L9423w4YZSS3-22" value="0,n" style="edgeLabel;html=1;align=center;verticalAlign=middle;resizable=0;points=[];" vertex="1" connectable="0" parent="negicoj8L9423w4YZSS3-9">
          <mxGeometry x="0.1048" y="1" relative="1" as="geometry">
            <mxPoint as="offset" />
          </mxGeometry>
        </mxCell>
        <mxCell id="negicoj8L9423w4YZSS3-6" value="BookShop" style="rounded=0;whiteSpace=wrap;html=1;" vertex="1" parent="1">
          <mxGeometry x="560" y="90" width="210" height="100" as="geometry" />
        </mxCell>
        <mxCell id="negicoj8L9423w4YZSS3-7" value="Vendre" style="rounded=0;whiteSpace=wrap;html=1;" vertex="1" parent="1">
          <mxGeometry x="605" y="295" width="120" height="60" as="geometry" />
        </mxCell>
        <mxCell id="negicoj8L9423w4YZSS3-12" style="edgeStyle=orthogonalEdgeStyle;rounded=0;orthogonalLoop=1;jettySize=auto;html=1;endArrow=none;endFill=0;" edge="1" parent="1" source="negicoj8L9423w4YZSS3-10" target="negicoj8L9423w4YZSS3-11">
          <mxGeometry relative="1" as="geometry" />
        </mxCell>
        <mxCell id="negicoj8L9423w4YZSS3-18" value="1,1" style="edgeLabel;html=1;align=center;verticalAlign=middle;resizable=0;points=[];" vertex="1" connectable="0" parent="negicoj8L9423w4YZSS3-12">
          <mxGeometry x="-0.1" y="2" relative="1" as="geometry">
            <mxPoint as="offset" />
          </mxGeometry>
        </mxCell>
        <mxCell id="negicoj8L9423w4YZSS3-15" style="edgeStyle=orthogonalEdgeStyle;rounded=0;orthogonalLoop=1;jettySize=auto;html=1;endArrow=none;endFill=0;" edge="1" parent="1" source="negicoj8L9423w4YZSS3-10" target="negicoj8L9423w4YZSS3-14">
          <mxGeometry relative="1" as="geometry" />
        </mxCell>
        <mxCell id="negicoj8L9423w4YZSS3-25" value="0,n" style="edgeLabel;html=1;align=center;verticalAlign=middle;resizable=0;points=[];" vertex="1" connectable="0" parent="negicoj8L9423w4YZSS3-15">
          <mxGeometry x="-0.255" y="-1" relative="1" as="geometry">
            <mxPoint as="offset" />
          </mxGeometry>
        </mxCell>
        <mxCell id="negicoj8L9423w4YZSS3-10" value="User" style="rounded=0;whiteSpace=wrap;html=1;" vertex="1" parent="1">
          <mxGeometry x="140" y="-260" width="190" height="110" as="geometry" />
        </mxCell>
        <mxCell id="negicoj8L9423w4YZSS3-13" style="edgeStyle=orthogonalEdgeStyle;rounded=0;orthogonalLoop=1;jettySize=auto;html=1;endArrow=none;endFill=0;" edge="1" parent="1" source="negicoj8L9423w4YZSS3-11" target="negicoj8L9423w4YZSS3-2">
          <mxGeometry relative="1" as="geometry" />
        </mxCell>
        <mxCell id="negicoj8L9423w4YZSS3-19" value="1,1" style="edgeLabel;html=1;align=center;verticalAlign=middle;resizable=0;points=[];" vertex="1" connectable="0" parent="negicoj8L9423w4YZSS3-13">
          <mxGeometry x="0.15" relative="1" as="geometry">
            <mxPoint as="offset" />
          </mxGeometry>
        </mxCell>
        <mxCell id="negicoj8L9423w4YZSS3-11" value="PossÃ©der" style="rounded=0;whiteSpace=wrap;html=1;" vertex="1" parent="1">
          <mxGeometry x="175" y="-110" width="120" height="60" as="geometry" />
        </mxCell>
        <mxCell id="negicoj8L9423w4YZSS3-16" style="edgeStyle=orthogonalEdgeStyle;rounded=0;orthogonalLoop=1;jettySize=auto;html=1;endArrow=none;endFill=0;dashed=1;" edge="1" parent="1" source="negicoj8L9423w4YZSS3-14" target="negicoj8L9423w4YZSS3-6">
          <mxGeometry relative="1" as="geometry" />
        </mxCell>
        <mxCell id="negicoj8L9423w4YZSS3-17" style="edgeStyle=orthogonalEdgeStyle;rounded=0;orthogonalLoop=1;jettySize=auto;html=1;entryX=1;entryY=0.25;entryDx=0;entryDy=0;endArrow=none;endFill=0;" edge="1" parent="1" source="negicoj8L9423w4YZSS3-14" target="negicoj8L9423w4YZSS3-1">
          <mxGeometry relative="1" as="geometry" />
        </mxCell>
        <mxCell id="negicoj8L9423w4YZSS3-24" value="0,n" style="edgeLabel;html=1;align=center;verticalAlign=middle;resizable=0;points=[];" vertex="1" connectable="0" parent="negicoj8L9423w4YZSS3-17">
          <mxGeometry x="-0.0374" y="1" relative="1" as="geometry">
            <mxPoint y="1" as="offset" />
          </mxGeometry>
        </mxCell>
        <mxCell id="negicoj8L9423w4YZSS3-14" value="Acheter" style="rounded=0;whiteSpace=wrap;html=1;" vertex="1" parent="1">
          <mxGeometry x="605" y="-140" width="120" height="60" as="geometry" />
        </mxCell>
      </root>
    </mxGraphModel>
  </diagram>
</mxfile>
